<svg width="40" height="40" viewBox="0 0 40 40" fill="none" xmlns="http://www.w3.org/2000/svg">
<path d="M33.8838 6.59624C31.2945 5.38337 28.526 4.50191 25.6315 4C25.276 4.64343 24.8607 5.50887 24.5744 6.19732C21.4975 5.73405 18.4489 5.73405 15.4286 6.19732C15.1423 5.50887 14.7176 4.64343 14.3589 4C11.4613 4.50191 8.68959 5.38661 6.10032 6.60267C0.877738 14.5039 -0.538019 22.2088 0.169861 29.8044C3.63375 32.3942 6.99068 33.9674 10.291 34.9968C11.1058 33.874 11.8326 32.6805 12.4586 31.4226C11.2663 30.969 10.1242 30.4092 9.04512 29.7594C9.3314 29.547 9.61143 29.325 9.88197 29.0966C16.4637 32.1786 23.6148 32.1786 30.1179 29.0966C30.3916 29.325 30.6716 29.547 30.9547 29.7594C29.8725 30.4124 28.7273 30.9722 27.5349 31.4258C28.161 32.6805 28.8846 33.8773 29.7026 35C33.0061 33.9705 36.3661 32.3974 39.83 29.8044C40.6606 20.9992 38.4111 13.365 33.8838 6.59624ZM13.3553 25.1332C11.3795 25.1332 9.75925 23.2866 9.75925 21.0378C9.75925 18.789 11.3449 16.9392 13.3553 16.9392C15.3657 16.9392 16.9859 18.7858 16.9513 21.0378C16.9545 23.2866 15.3657 25.1332 13.3553 25.1332ZM26.6446 25.1332C24.6688 25.1332 23.0485 23.2866 23.0485 21.0378C23.0485 18.789 24.6342 16.9392 26.6446 16.9392C28.6549 16.9392 30.2752 18.7858 30.2406 21.0378C30.2406 23.2866 28.6549 25.1332 26.6446 25.1332Z" fill="#FF4800"/>
</svg>
