<svg width="40" height="40" viewBox="0 0 40 40" fill="none" xmlns="http://www.w3.org/2000/svg">
<path d="M38.3332 5C36.7371 6.12579 34.97 6.98685 33.0998 7.55C32.0961 6.39585 30.7621 5.57782 29.2782 5.20654C27.7944 4.83526 26.2323 4.92866 24.8033 5.47409C23.3743 6.01952 22.1472 6.99067 21.2881 8.25619C20.429 9.52172 19.9793 11.0206 19.9998 12.55V14.2167C17.0709 14.2926 14.1686 13.643 11.5515 12.3257C8.93441 11.0085 6.6837 9.06439 4.99984 6.66666C4.99984 6.66666 -1.66683 21.6667 13.3332 28.3333C9.90072 30.6633 5.81177 31.8315 1.6665 31.6667C16.6665 40 34.9998 31.6667 34.9998 12.5C34.9983 12.0358 34.9537 11.5727 34.8665 11.1167C36.5675 9.43915 37.7679 7.32119 38.3332 5Z" fill="#FF4800" stroke="#FF4800" stroke-width="1.8" stroke-linecap="round" stroke-linejoin="round"/>
</svg>
