<svg width="40" height="40" viewBox="0 0 40 40" fill="none" xmlns="http://www.w3.org/2000/svg">
<path d="M37.5665 10.7C37.3685 9.90901 36.9653 9.18428 36.3976 8.59901C35.8299 8.01373 35.1177 7.58864 34.3331 7.36666C31.4665 6.66666 19.9998 6.66666 19.9998 6.66666C19.9998 6.66666 8.53315 6.66666 5.66648 7.43333C4.88189 7.65531 4.16978 8.0804 3.60206 8.66567C3.03434 9.25095 2.63113 9.97568 2.43315 10.7667C1.9085 13.6759 1.65187 16.6272 1.66648 19.5833C1.64778 22.5617 1.90443 25.5355 2.43315 28.4667C2.65141 29.2331 3.06366 29.9302 3.63005 30.4908C4.19645 31.0514 4.89785 31.4564 5.66648 31.6667C8.53315 32.4333 19.9998 32.4333 19.9998 32.4333C19.9998 32.4333 31.4665 32.4333 34.3331 31.6667C35.1177 31.4447 35.8299 31.0196 36.3976 30.4343C36.9653 29.849 37.3685 29.1243 37.5665 28.3333C38.0871 25.446 38.3437 22.5172 38.3331 19.5833C38.3519 16.6049 38.0952 13.6312 37.5665 10.7Z" fill="#FF4800" stroke="#FF4800" stroke-width="1.8" stroke-linecap="round" stroke-linejoin="round"/>
<path d="M16.25 25.0333L25.8333 19.5833L16.25 14.1333V25.0333Z" fill="white" stroke="white" stroke-width="1.8" stroke-linecap="round" stroke-linejoin="round"/>
</svg>
