<svg width="40" height="40" viewBox="0 0 40 40" fill="none" xmlns="http://www.w3.org/2000/svg">
<path d="M32.6482 11.1433C30.9838 10.7873 29.4766 9.90892 28.3463 8.63626C27.216 7.3636 26.5218 5.76319 26.3649 4.06834V3.33334H20.6232V26.12C20.6197 27.1288 20.3001 28.1111 19.7095 28.9289C19.1189 29.7468 18.2868 30.359 17.3303 30.6795C16.3738 31.0001 15.3409 31.0129 14.3767 30.7161C13.4126 30.4193 12.5656 29.8279 11.9549 29.025C11.3347 28.2086 10.9907 27.2159 10.9727 26.1909C10.9547 25.1658 11.2637 24.1616 11.8548 23.324C12.446 22.4864 13.2886 21.8588 14.2605 21.5324C15.2323 21.2059 16.2829 21.1975 17.2599 21.5083V15.675C15.0813 15.3738 12.8631 15.7612 10.9155 16.7828C8.96787 17.8044 7.38829 19.4092 6.39769 21.3728C5.40709 23.3364 5.05501 25.5605 5.3907 27.734C5.72639 29.9075 6.73305 31.9218 8.26989 33.495C9.73549 34.9946 11.6147 36.0234 13.6677 36.4502C15.7206 36.877 17.8542 36.6823 19.796 35.8911C21.7378 35.0998 23.3998 33.7479 24.5698 32.0078C25.7398 30.2677 26.3648 28.2185 26.3649 26.1217V14.4783C28.6853 16.1372 31.4675 17.0267 34.3199 17.0217V11.3167C33.7581 11.3174 33.1979 11.2593 32.6482 11.1433Z" fill="#FF4800"/>
</svg>
